<svg id="Layer_1" data-name="Layer 1" xmlns="http://www.w3.org/2000/svg" viewBox="0 0 519.15 519.15"><defs><style>.cls-1{stroke:#000;stroke-miterlimit:10;}.cls-2{fill:none;}</style></defs><path class="cls-1" d="M518.65,108.71V410.44A108.21,108.21,0,0,1,410.44,518.65H292.1V332.34h63.72l10-77H292c0-5.58.19-49.52.19-55.52,0-22.76,20.76-24.38,20.76-24.38h53.73V106.85H291.19s-73.14,6.1-75.62,79.8c-.57,17.24-1,69-1,69h-62.1V333h63.06V518.65H108.71A108.21,108.21,0,0,1,.5,410.44V108.71A108.2,108.2,0,0,1,108.71.5H410.44A108.21,108.21,0,0,1,518.65,108.71Z"/><rect class="cls-2" x="226.57" y="453.86" width="57.39" height="0.85"/></svg>