<svg id="Layer_1" data-name="Layer 1" xmlns="http://www.w3.org/2000/svg" viewBox="0 0 500.93 500.15"><defs><style>.cls-1{stroke:#000;stroke-miterlimit:10;}</style></defs><path class="cls-1" d="M500.43,204.58v91.77c0,105.33-79.79,192-182.23,202.92,0-9.19-.17-70.69-.17-92.46,0-5.87-3.36-18.15-5.57-22.79a58.47,58.47,0,0,0-12.63-17.7s58.33-6,86.41-32.8c37.22-35.58,36.83-79.92,36.41-101.44-.18-8.42-2.8-29-6.07-37.43-3.49-9-21-32.52-21-32.52s4.48-18.7,5-27.49c.51-9.16-1.73-38.64-8.91-44.33-8.25-6.54-31.19,5.55-41.1,9.25-8.28,3.07-31.65,17.86-31.65,17.86s-52-10.51-70.17-10.49c-15.25,0-66,10.41-66,10.41s-53-34.67-71.92-26.76c-2.35,1-6.09,19.91-8.31,35.37-2.51,17.48,6.86,34.33,5.93,35.17-32.75,29.73-26.73,52-27.35,71C76.58,369.81,204.22,364.6,202.77,366.23c-18.52,20.75-16.56,36.48-16.56,36.48s-11.61,2.76-15.41,3.94c-44.49,13.77-63.7-28.2-63.7-28.2A56.37,56.37,0,0,0,60,351.56c-2.29-.05-6.59,3.93-5.9,5.9,1,2.81,7.39,8.34,10.33,11,8.86,7.95,16.72,4.93,32.3,45.09,15.28,39.41,89.52,26.23,89.52,26.23V499.6C82.09,490.32.5,402.87.5,296.35V204.58C.5,91.86,91.86.5,204.58.5h91.77C409.06.5,500.43,91.86,500.43,204.58Z"/></svg>