<svg id="Layer_1" data-name="Layer 1" xmlns="http://www.w3.org/2000/svg" viewBox="0 0 534.68 534.68"><defs><style>.cls-1{stroke:#000;stroke-miterlimit:10;}</style></defs><path class="cls-1" d="M381.36.5h-228A152.83,152.83,0,0,0,.5,153.32v228A152.83,152.83,0,0,0,153.32,534.18h228A152.83,152.83,0,0,0,534.18,381.36v-228A152.83,152.83,0,0,0,381.36.5ZM485.67,382.39A103.29,103.29,0,0,1,382.39,485.67H152.29A103.29,103.29,0,0,1,49,382.39V152.29A103.28,103.28,0,0,1,152.29,49h230.1A103.29,103.29,0,0,1,485.67,152.29Z"/><path class="cls-1" d="M267.34,132.06A135.28,135.28,0,1,0,402.62,267.34,135.27,135.27,0,0,0,267.34,132.06Zm0,221.37a86.09,86.09,0,1,1,86.09-86.09A86.09,86.09,0,0,1,267.34,353.43Z"/><circle class="cls-1" cx="414.31" cy="123.03" r="30.86"/></svg>